# xmcd CD database file
#
# Track frame offsets:
#	150
#	28822
#	61274
#	84680
#	110350
#	140224
#	156326
#	179830
#	204689
#	227785
#	251195
#	279491
#	301835
#
# Disc length: 4251 seconds
#
# Revision: 0
# Processed by: cddbd v1.5.2PL0 Copyright (c) Steve Scherf et al.
# Submitted via: CDex 1.75
#
DISCID=c510990d
DTITLE=Triosence live - One Summer Night 
DYEAR=2015
DGENRE=Jazz
TTITLE0=waltz for andrea
TTITLE1=no one`s fault
TTITLE2=the road ahead
TTITLE3=I. wan chuen fong II. ilha formosa
TTITLE4=secret holiday
TTITLE5=a far-off place
TTITLE6=when time stands still
TTITLE7=my best friend
TTITLE8=winter rain
TTITLE9=summer rain
TTITLE10=go for it
TTITLE11=your yearness
TTITLE12=you`re my spring
EXTD=YEAR: 2015
EXTT0=
EXTT1=
EXTT2=
EXTT3=
EXTT4=
EXTT5=
EXTT6=
EXTT7=
EXTT8=
EXTT9=
EXTT10=
EXTT11=
EXTT12=
PLAYORDER=
